<svg width="55" height="52" viewBox="0 0 55 52" fill="none" xmlns="http://www.w3.org/2000/svg">
<path fill-rule="evenodd" clip-rule="evenodd" d="M29.73 42.3566L50.6893 21.3973L54.2248 24.9328L28.9963 50.1614L27.2285 51.9292L25.4607 50.1614L0.232178 24.9328L3.76771 21.3973L24.73 42.3596L24.754 0.998535L29.754 1.00143L29.73 42.3566Z" fill="url(#paint0_radial_1_31)"/>
<path fill-rule="evenodd" clip-rule="evenodd" d="M29.73 42.3566L50.6893 21.3973L54.2248 24.9328L28.9963 50.1614L27.2285 51.9292L25.4607 50.1614L0.232178 24.9328L3.76771 21.3973L24.73 42.3596L24.754 0.998535L29.754 1.00143L29.73 42.3566Z" fill="url(#paint1_angular_1_31)" style="mix-blend-mode:difference"/>
<path fill-rule="evenodd" clip-rule="evenodd" d="M29.73 42.3566L50.6893 21.3973L54.2248 24.9328L28.9963 50.1614L27.2285 51.9292L25.4607 50.1614L0.232178 24.9328L3.76771 21.3973L24.73 42.3596L24.754 0.998535L29.754 1.00143L29.73 42.3566Z" fill="white"/>
<defs>
<radialGradient id="paint0_radial_1_31" cx="0" cy="0" r="1" gradientUnits="userSpaceOnUse" gradientTransform="translate(6.88345 4.44312) rotate(47.641) scale(64.2626 64.7177)">
<stop stop-color="#20CDC2"/>
<stop offset="0.214594" stop-color="#D1E950"/>
<stop offset="0.417892" stop-color="#F7ADF9"/>
<stop offset="0.613297" stop-color="#A8AEF7"/>
<stop offset="0.844141" stop-color="#47E794"/>
<stop offset="1" stop-color="#42B6EC"/>
</radialGradient>
<radialGradient id="paint1_angular_1_31" cx="0" cy="0" r="1" gradientUnits="userSpaceOnUse" gradientTransform="translate(27.2285 26.4639) rotate(89.7955) scale(36.5374 38.7341)">
<stop stop-color="white"/>
<stop offset="0.180208"/>
<stop offset="0.320833" stop-color="white"/>
<stop offset="0.503125"/>
<stop offset="0.64375" stop-color="white"/>
<stop offset="0.773958"/>
<stop offset="0.898958" stop-color="white"/>
<stop offset="0.997917"/>
</radialGradient>
</defs>
</svg>
