<svg width="554" height="128" viewBox="0 0 554 128" fill="none" xmlns="http://www.w3.org/2000/svg">
<g filter="url(#filter0_bd_1_161)">
<path d="M47.4102 95H30.3008V36.4062H10.3203V25.0391C15.5938 24.8047 19.2852 24.4531 21.3945 23.9844C24.7539 23.2422 27.4883 21.7578 29.5977 19.5312C31.043 18.0078 32.1367 15.9766 32.8789 13.4375C33.3086 11.9141 33.5234 10.7813 33.5234 10.0391H47.4102V95ZM167.352 8.86719H193.777V95H177.195V22.9883H176.961L160.613 95H143.094L127.391 22.9883H127.156V95H110.574V8.86719H136.883L152 75.8984H152.234L167.352 8.86719ZM271.531 57.6758H229.285V79.4141H277.273V95H212V8.86719H275.223V23.6914H229.285V42.793H271.531V57.6758ZM317.82 79.5312C320.398 80.8984 323.328 81.582 326.609 81.582C330.398 81.582 333.484 80.9961 335.867 79.8242C338.25 78.6523 340.145 77.2266 341.551 75.5469C342.996 73.8672 344.07 72.1094 344.773 70.2734C345.477 68.4375 346.023 66.8359 346.414 65.4688H364.285C363.309 70.8594 361.688 75.5469 359.422 79.5312C357.156 83.4766 354.402 86.7578 351.16 89.375C347.918 91.9922 344.266 93.9453 340.203 95.2344C336.18 96.5234 331.883 97.168 327.312 97.168C320.906 97.168 315.223 96.1133 310.262 94.0039C305.34 91.8555 301.18 88.8086 297.781 84.8633C294.422 80.918 291.863 76.1719 290.105 70.625C288.348 65.0391 287.469 58.8086 287.469 51.9336C287.469 46.6211 287.977 41.8164 288.992 37.5195C290.008 33.2227 291.414 29.4141 293.211 26.0938C295.047 22.7344 297.195 19.8437 299.656 17.4219C302.117 14.9609 304.793 12.9492 307.684 11.3867C310.613 9.78516 313.68 8.61328 316.883 7.87109C320.086 7.08984 323.328 6.69922 326.609 6.69922C331.297 6.69922 335.457 7.1875 339.09 8.16406C342.723 9.14063 345.906 10.4492 348.641 12.0898C351.375 13.7305 353.699 15.6055 355.613 17.7148C357.566 19.8242 359.148 22.0117 360.359 24.2773C361.609 26.5039 362.527 28.75 363.113 31.0156C363.738 33.2422 364.129 35.293 364.285 37.168H346.297C346.062 36.3477 345.77 35.4102 345.418 34.3555C345.066 33.2617 344.578 32.168 343.953 31.0742C343.367 29.9805 342.605 28.9062 341.668 27.8516C340.77 26.7969 339.637 25.8594 338.27 25.0391C336.902 24.2188 335.262 23.5547 333.348 23.0469C331.434 22.5391 329.188 22.2852 326.609 22.2852C325.516 22.2852 324.227 22.4219 322.742 22.6953C321.258 22.9688 319.734 23.4961 318.172 24.2773C316.609 25.0195 315.066 26.0742 313.543 27.4414C312.02 28.8086 310.652 30.6055 309.441 32.832C308.27 35.0195 307.312 37.6758 306.57 40.8008C305.828 43.9258 305.457 47.6367 305.457 51.9336C305.457 56.582 305.945 60.7422 306.922 64.4141C307.898 68.0859 309.305 71.1914 311.141 73.7305C312.977 76.2695 315.203 78.2031 317.82 79.5312ZM396.512 67.0508C395.457 69.0039 394.773 71.7578 394.461 75.3125L393.875 83.457C393.719 85.332 393.543 86.9141 393.348 88.2031C393.191 89.4531 393.016 90.5078 392.82 91.3672C392.625 92.1875 392.43 92.8906 392.234 93.4766C392.039 94.0234 391.863 94.5312 391.707 95H373.016C373.602 93.9062 374.051 92.9688 374.363 92.1875C374.715 91.4062 374.988 90.5859 375.184 89.7266C375.418 88.8672 375.594 87.8711 375.711 86.7383C375.867 85.6055 376.043 84.1211 376.238 82.2852L377.059 74.1406C377.332 71.6406 377.664 69.375 378.055 67.3438C378.484 65.2734 379.129 63.4375 379.988 61.8359C380.887 60.2344 382.117 58.8477 383.68 57.6758C385.242 56.5039 387.312 55.5078 389.891 54.6875C388.758 54.2969 387.527 53.7891 386.199 53.1641C384.91 52.5391 383.543 51.4844 382.098 50C380.223 48.125 378.738 45.8398 377.645 43.1445C376.551 40.4102 376.004 37.4219 376.004 34.1797C376.004 32.1484 376.219 30.2148 376.648 28.3789C377.078 26.5039 377.684 24.7461 378.465 23.1055C379.246 21.4648 380.164 19.9609 381.219 18.5938C382.312 17.2266 383.484 16.0156 384.734 14.9609C386.531 13.4375 388.484 12.2656 390.594 11.4453C392.742 10.625 394.949 10.0195 397.215 9.62891C399.52 9.23828 401.863 9.02344 404.246 8.98438C406.668 8.90625 409.051 8.86719 411.395 8.86719H447.371V95H429.969V61.0156H413.914C411.18 61.0156 408.68 61.0938 406.414 61.25C404.188 61.4062 402.234 61.9336 400.555 62.832C398.875 63.6914 397.527 65.0977 396.512 67.0508ZM394.637 31.3672C394.207 32.5781 393.992 34.0234 393.992 35.7031C393.992 37.5781 394.246 39.1602 394.754 40.4492C395.301 41.6992 396.004 42.7539 396.863 43.6133C397.762 44.4336 398.758 45.0781 399.852 45.5469C400.984 45.9766 402.117 46.2891 403.25 46.4844C404.422 46.6797 405.555 46.7969 406.648 46.8359C407.781 46.875 408.797 46.8945 409.695 46.8945H429.969V23.9844H409.695C409.461 23.9844 408.992 24.0039 408.289 24.043C407.586 24.043 406.785 24.082 405.887 24.1602C405.027 24.1992 404.148 24.2773 403.25 24.3945C402.352 24.5117 401.59 24.6875 400.965 24.9219C400.184 25.2344 399.383 25.6641 398.562 26.2109C397.742 26.7188 396.98 27.4023 396.277 28.2617C395.613 29.1211 395.066 30.1562 394.637 31.3672ZM534.09 80.1172H543.055V113.457H527.469V95H464.246V8.86719H482.293V80.1172H516.102V8.86719H534.09V80.1172Z" fill="url(#paint0_linear_1_161)" shape-rendering="crispEdges"/>
<path d="M47.4102 95V96H48.4102V95H47.4102ZM30.3008 95H29.3008V96H30.3008V95ZM30.3008 36.4062H31.3008V35.4062H30.3008V36.4062ZM10.3203 36.4062H9.32031V37.4062H10.3203V36.4062ZM10.3203 25.0391L10.2759 24.04L9.32031 24.0825V25.0391H10.3203ZM21.3945 23.9844L21.1788 23.0079L21.1776 23.0082L21.3945 23.9844ZM29.5977 19.5312L28.8722 18.843L28.8717 18.8435L29.5977 19.5312ZM32.8789 13.4375L33.8388 13.7181L33.8414 13.709L32.8789 13.4375ZM33.5234 10.0391V9.03906H32.5234V10.0391H33.5234ZM47.4102 10.0391H48.4102V9.03906H47.4102V10.0391ZM47.4102 94H30.3008V96H47.4102V94ZM31.3008 95V36.4062H29.3008V95H31.3008ZM30.3008 35.4062H10.3203V37.4062H30.3008V35.4062ZM11.3203 36.4062V25.0391H9.32031V36.4062H11.3203ZM10.3647 26.0381C15.6371 25.8038 19.4076 25.4503 21.6115 24.9606L21.1776 23.0082C19.1627 23.4559 15.5504 23.8056 10.2759 24.04L10.3647 26.0381ZM21.6103 24.9608C25.1401 24.181 28.0604 22.6079 30.3236 20.219L28.8717 18.8435C26.9161 20.9077 24.3677 22.3034 21.1788 23.0079L21.6103 24.9608ZM30.3231 20.2195C31.9026 18.5547 33.0633 16.371 33.8387 13.7181L31.9191 13.1569C31.2102 15.5821 30.1834 17.461 28.8722 18.843L30.3231 20.2195ZM33.8414 13.709C34.2744 12.1736 34.5234 10.9281 34.5234 10.0391H32.5234C32.5234 10.6344 32.3428 11.6545 31.9165 13.166L33.8414 13.709ZM33.5234 11.0391H47.4102V9.03906H33.5234V11.0391ZM46.4102 10.0391V95H48.4102V10.0391H46.4102ZM167.352 8.86719V7.86719H166.552L166.376 8.64719L167.352 8.86719ZM193.777 8.86719H194.777V7.86719H193.777V8.86719ZM193.777 95V96H194.777V95H193.777ZM177.195 95H176.195V96H177.195V95ZM177.195 22.9883H178.195V21.9883H177.195V22.9883ZM176.961 22.9883V21.9883H176.163L175.986 22.7669L176.961 22.9883ZM160.613 95V96H161.412L161.588 95.2214L160.613 95ZM143.094 95L142.117 95.2131L142.288 96H143.094V95ZM127.391 22.9883L128.368 22.7752L128.196 21.9883H127.391V22.9883ZM127.156 22.9883V21.9883H126.156V22.9883H127.156ZM127.156 95V96H128.156V95H127.156ZM110.574 95H109.574V96H110.574V95ZM110.574 8.86719V7.86719H109.574V8.86719H110.574ZM136.883 8.86719L137.858 8.64719L137.682 7.86719H136.883V8.86719ZM152 75.8984L151.024 76.1184L151.2 76.8984H152V75.8984ZM152.234 75.8984V76.8984H153.034L153.21 76.1184L152.234 75.8984ZM167.352 9.86719H193.777V7.86719H167.352V9.86719ZM192.777 8.86719V95H194.777V8.86719H192.777ZM193.777 94H177.195V96H193.777V94ZM178.195 95V22.9883H176.195V95H178.195ZM177.195 21.9883H176.961V23.9883H177.195V21.9883ZM175.986 22.7669L159.638 94.7786L161.588 95.2214L177.936 23.2097L175.986 22.7669ZM160.613 94H143.094V96H160.613V94ZM144.071 94.7869L128.368 22.7752L126.414 23.2013L142.117 95.2131L144.071 94.7869ZM127.391 21.9883H127.156V23.9883H127.391V21.9883ZM126.156 22.9883V95H128.156V22.9883H126.156ZM127.156 94H110.574V96H127.156V94ZM111.574 95V8.86719H109.574V95H111.574ZM110.574 9.86719H136.883V7.86719H110.574V9.86719ZM135.907 9.08719L151.024 76.1184L152.976 75.6784L137.858 8.64719L135.907 9.08719ZM152 76.8984H152.234V74.8984H152V76.8984ZM153.21 76.1184L168.327 9.08719L166.376 8.64719L151.259 75.6784L153.21 76.1184ZM271.531 57.6758V58.6758H272.531V57.6758H271.531ZM229.285 57.6758V56.6758H228.285V57.6758H229.285ZM229.285 79.4141H228.285V80.4141H229.285V79.4141ZM277.273 79.4141H278.273V78.4141H277.273V79.4141ZM277.273 95V96H278.273V95H277.273ZM212 95H211V96H212V95ZM212 8.86719V7.86719H211V8.86719H212ZM275.223 8.86719H276.223V7.86719H275.223V8.86719ZM275.223 23.6914V24.6914H276.223V23.6914H275.223ZM229.285 23.6914V22.6914H228.285V23.6914H229.285ZM229.285 42.793H228.285V43.793H229.285V42.793ZM271.531 42.793H272.531V41.793H271.531V42.793ZM271.531 56.6758H229.285V58.6758H271.531V56.6758ZM228.285 57.6758V79.4141H230.285V57.6758H228.285ZM229.285 80.4141H277.273V78.4141H229.285V80.4141ZM276.273 79.4141V95H278.273V79.4141H276.273ZM277.273 94H212V96H277.273V94ZM213 95V8.86719H211V95H213ZM212 9.86719H275.223V7.86719H212V9.86719ZM274.223 8.86719V23.6914H276.223V8.86719H274.223ZM275.223 22.6914H229.285V24.6914H275.223V22.6914ZM228.285 23.6914V42.793H230.285V23.6914H228.285ZM229.285 43.793H271.531V41.793H229.285V43.793ZM270.531 42.793V57.6758H272.531V42.793H270.531ZM317.82 79.5312L318.289 78.6478L318.281 78.6436L318.273 78.6395L317.82 79.5312ZM341.551 75.5469L340.793 74.8946L340.784 74.9049L341.551 75.5469ZM346.414 65.4688V64.4688H345.66L345.453 65.194L346.414 65.4688ZM364.285 65.4688L365.269 65.647L365.483 64.4688H364.285V65.4688ZM359.422 79.5312L360.289 80.0292L360.291 80.0256L359.422 79.5312ZM351.16 89.375L350.532 88.5969L351.16 89.375ZM340.203 95.2344L339.901 94.2812L339.898 94.2821L340.203 95.2344ZM310.262 94.0039L309.862 94.9204L309.87 94.9242L310.262 94.0039ZM297.781 84.8633L297.02 85.5116L297.024 85.5159L297.781 84.8633ZM290.105 70.625L289.152 70.9252L289.152 70.9271L290.105 70.625ZM288.992 37.5195L288.019 37.2895L288.992 37.5195ZM293.211 26.0938L292.333 25.6142L292.331 25.6178L293.211 26.0938ZM299.656 17.4219L300.358 18.1346L300.363 18.129L299.656 17.4219ZM307.684 11.3867L308.159 12.2664L308.163 12.2642L307.684 11.3867ZM316.883 7.87109L317.109 8.84535L317.12 8.84261L316.883 7.87109ZM348.641 12.0898L349.155 11.2324L348.641 12.0898ZM355.613 17.7148L354.873 18.3869L354.88 18.3943L355.613 17.7148ZM360.359 24.2773L359.477 24.7487L359.482 24.7579L359.487 24.7669L360.359 24.2773ZM363.113 31.0156L362.145 31.266L362.148 31.276L362.15 31.2859L363.113 31.0156ZM364.285 37.168V38.168H365.372L365.282 37.0849L364.285 37.168ZM346.297 37.168L345.335 37.4427L345.543 38.168H346.297V37.168ZM345.418 34.3555L344.466 34.6615L344.469 34.6717L345.418 34.3555ZM343.953 31.0742L343.072 31.5464L343.078 31.5585L343.085 31.5704L343.953 31.0742ZM341.668 27.8516L340.907 28.5L340.914 28.5081L340.921 28.5159L341.668 27.8516ZM318.172 24.2773L318.601 25.1806L318.61 25.1763L318.619 25.1718L318.172 24.2773ZM309.441 32.832L308.563 32.3542L308.56 32.3598L309.441 32.832ZM311.141 73.7305L310.33 74.3164L311.141 73.7305ZM317.352 80.4147C320.091 81.8675 323.185 82.582 326.609 82.582V80.582C323.471 80.582 320.705 79.9293 318.289 78.6478L317.352 80.4147ZM326.609 82.582C330.491 82.582 333.743 81.9835 336.309 80.7216L335.426 78.9269C333.226 80.0087 330.306 80.582 326.609 80.582V82.582ZM336.309 80.7216C338.79 79.5009 340.805 77.9956 342.318 76.1888L340.784 74.9049C339.484 76.4576 337.71 77.8037 335.426 78.9269L336.309 80.7216ZM342.309 76.1991C343.82 74.4431 344.958 72.5874 345.707 70.6311L343.84 69.9158C343.183 71.6314 342.172 73.2913 340.793 74.8946L342.309 76.1991ZM345.707 70.6311C346.417 68.7774 346.975 67.147 347.376 65.7435L345.453 65.194C345.072 66.5249 344.536 68.0976 343.84 69.9158L345.707 70.6311ZM346.414 66.4688H364.285V64.4688H346.414V66.4688ZM363.301 65.2905C362.341 70.5911 360.753 75.1677 358.553 79.0369L360.291 80.0256C362.622 75.926 364.276 71.1276 365.269 65.647L363.301 65.2905ZM358.555 79.0333C356.345 82.8811 353.669 86.0643 350.532 88.5969L351.788 90.1531C355.135 87.4513 357.967 84.072 360.289 80.0292L358.555 79.0333ZM350.532 88.5969C347.389 91.1342 343.847 93.0289 339.901 94.2812L340.506 96.1875C344.684 94.8618 348.447 92.8502 351.788 90.1531L350.532 88.5969ZM339.898 94.2821C335.981 95.537 331.788 96.168 327.312 96.168V98.168C331.978 98.168 336.378 97.5098 340.508 96.1867L339.898 94.2821ZM327.312 96.168C321.016 96.168 315.469 95.1315 310.653 93.0836L309.87 94.9242C314.976 97.0951 320.797 98.168 327.312 98.168V96.168ZM310.662 93.0874C305.873 90.9971 301.836 88.0387 298.539 84.2106L297.024 85.5159C300.523 89.5785 304.807 92.7139 309.862 94.9204L310.662 93.0874ZM298.543 84.215C295.28 80.3829 292.781 75.7583 291.059 70.3229L289.152 70.9271C290.945 76.5854 293.564 81.4531 297.02 85.5116L298.543 84.215ZM291.059 70.3248C289.337 64.8512 288.469 58.724 288.469 51.9336H286.469C286.469 58.8932 287.358 65.2269 289.152 70.9252L291.059 70.3248ZM288.469 51.9336C288.469 46.6835 288.971 41.9577 289.965 37.7496L288.019 37.2895C286.982 41.6752 286.469 46.5587 286.469 51.9336H288.469ZM289.965 37.7496C290.964 33.5243 292.342 29.8007 294.09 26.5697L292.331 25.6178C290.486 29.0274 289.052 32.921 288.019 37.2895L289.965 37.7496ZM294.088 26.5733C295.882 23.2906 297.974 20.4808 300.358 18.1346L298.955 16.7091C296.417 19.2067 294.211 22.1781 292.333 25.6142L294.088 26.5733ZM300.363 18.129C302.76 15.7324 305.359 13.7803 308.159 12.2664L307.208 10.507C304.227 12.1182 301.474 14.1894 298.949 16.7148L300.363 18.129ZM308.163 12.2642C311.014 10.7056 313.995 9.56661 317.109 8.84528L316.657 6.8969C313.364 7.65995 310.212 8.86474 307.204 10.5093L308.163 12.2642ZM317.12 8.84261C320.246 8.08019 323.408 7.69922 326.609 7.69922V5.69922C323.248 5.69922 319.926 6.0995 316.646 6.89957L317.12 8.84261ZM326.609 7.69922C331.23 7.69922 335.3 8.18075 338.83 9.12978L339.349 7.19835C335.614 6.19425 331.364 5.69922 326.609 5.69922V7.69922ZM338.83 9.12978C342.389 10.0865 345.484 11.3621 348.126 12.9473L349.155 11.2324C346.328 9.53635 343.056 8.19479 339.349 7.19835L338.83 9.12978ZM348.126 12.9473C350.786 14.5435 353.032 16.3581 354.873 18.3868L356.354 17.0429C354.367 14.8528 351.964 12.9175 349.155 11.2324L348.126 12.9473ZM354.88 18.3943C356.781 20.4482 358.311 22.5668 359.477 24.7487L361.241 23.806C359.986 21.4566 358.351 19.2002 356.347 17.0354L354.88 18.3943ZM359.487 24.7669C360.699 26.925 361.583 29.0911 362.145 31.266L364.081 30.7652C363.472 28.4089 362.52 26.0828 361.231 23.7878L359.487 24.7669ZM362.15 31.2859C362.762 33.4646 363.139 35.4518 363.289 37.251L365.282 37.0849C365.119 35.1342 364.715 33.0198 364.076 30.7454L362.15 31.2859ZM364.285 36.168H346.297V38.168H364.285V36.168ZM347.258 36.8932C347.019 36.0556 346.722 35.1038 346.367 34.0392L344.469 34.6717C344.818 35.7165 345.106 36.6397 345.335 37.4427L347.258 36.8932ZM346.37 34.0495C345.995 32.8836 345.478 31.7264 344.821 30.5781L343.085 31.5704C343.679 32.6095 344.138 33.6398 344.466 34.6615L346.37 34.0495ZM344.835 30.602C344.207 29.4305 343.398 28.2926 342.415 27.1872L340.921 28.5159C341.813 29.5199 342.527 30.5304 343.072 31.5464L344.835 30.602ZM342.429 27.2031C341.451 26.0544 340.23 25.0494 338.784 24.1816L337.755 25.8966C339.043 26.6693 340.088 27.5393 340.907 28.5L342.429 27.2031ZM338.784 24.1816C337.32 23.303 335.588 22.6066 333.604 22.0803L333.091 24.0134C334.936 24.5027 336.485 25.1345 337.755 25.8966L338.784 24.1816ZM333.604 22.0803C331.586 21.5448 329.25 21.2852 326.609 21.2852V23.2852C329.125 23.2852 331.282 23.5333 333.091 24.0134L333.604 22.0803ZM326.609 21.2852C325.437 21.2852 324.084 21.4312 322.561 21.7119L322.923 23.6788C324.369 23.4125 325.594 23.2852 326.609 23.2852V21.2852ZM322.561 21.7119C320.971 22.0048 319.358 22.5661 317.725 23.3829L318.619 25.1718C320.11 24.4261 321.545 23.9327 322.923 23.6788L322.561 21.7119ZM317.743 23.3741C316.079 24.1642 314.457 25.2772 312.875 26.6972L314.211 28.1856C315.675 26.8713 317.139 25.8748 318.601 25.1806L317.743 23.3741ZM312.875 26.6972C311.249 28.1562 309.816 30.0505 308.563 32.3543L310.32 33.3098C311.489 31.1605 312.79 29.461 314.211 28.1856L312.875 26.6972ZM308.56 32.3598C307.337 34.6419 306.354 37.3839 305.597 40.5697L307.543 41.0319C308.271 37.9676 309.202 35.3972 310.323 33.3043L308.56 32.3598ZM305.597 40.5697C304.832 43.7909 304.457 47.5833 304.457 51.9336H306.457C306.457 47.6902 306.824 44.0606 307.543 41.0319L305.597 40.5697ZM304.457 51.9336C304.457 56.6503 304.952 60.8991 305.955 64.6711L307.888 64.157C306.938 60.5852 306.457 56.5138 306.457 51.9336H304.457ZM305.955 64.6711C306.957 68.4368 308.409 71.6596 310.33 74.3164L311.951 73.1445C310.2 70.7232 308.84 67.7351 307.888 64.157L305.955 64.6711ZM310.33 74.3164C312.253 76.9755 314.599 79.018 317.368 80.423L318.273 78.6395C315.807 77.3882 313.7 75.5636 311.951 73.1445L310.33 74.3164ZM396.512 67.0508L397.392 67.5259L397.395 67.5191L397.399 67.5121L396.512 67.0508ZM394.461 75.3125L393.465 75.2249L393.464 75.2328L393.464 75.2407L394.461 75.3125ZM393.875 83.457L394.872 83.5401L394.872 83.5288L393.875 83.457ZM393.348 88.2031L392.359 88.0533L392.357 88.0662L392.355 88.0791L393.348 88.2031ZM392.82 91.3672L393.793 91.5988L393.795 91.5888L392.82 91.3672ZM392.234 93.4766L393.176 93.8129L393.18 93.8029L393.183 93.7928L392.234 93.4766ZM391.707 95V96H392.428L392.656 95.3162L391.707 95ZM373.016 95L372.134 94.5278L371.345 96H373.016V95ZM374.363 92.1875L373.451 91.7771L373.443 91.7964L373.435 91.8161L374.363 92.1875ZM375.184 89.7266L374.219 89.4634L374.213 89.4841L374.208 89.5049L375.184 89.7266ZM375.711 86.7383L374.72 86.6016L374.718 86.6185L374.716 86.6354L375.711 86.7383ZM376.238 82.2852L377.233 82.3909L377.233 82.3854L376.238 82.2852ZM377.059 74.1406L376.064 74.0319L376.064 74.0404L377.059 74.1406ZM378.055 67.3438L377.076 67.1405L377.074 67.1477L377.073 67.1549L378.055 67.3438ZM379.988 61.8359L379.116 61.3467L379.112 61.3549L379.107 61.3631L379.988 61.8359ZM389.891 54.6875L390.194 55.6404L393.069 54.7257L390.217 53.7421L389.891 54.6875ZM386.199 53.1641L385.763 54.0639L385.773 54.0689L386.199 53.1641ZM382.098 50L382.814 49.3023L382.805 49.2929L382.098 50ZM377.645 43.1445L376.716 43.5159L376.718 43.5205L377.645 43.1445ZM376.648 28.3789L377.622 28.6068L377.623 28.6023L376.648 28.3789ZM381.219 18.5938L380.438 17.9691L380.432 17.976L380.427 17.9829L381.219 18.5938ZM384.734 14.9609L385.379 15.7252L385.381 15.7237L384.734 14.9609ZM390.594 11.4453L390.237 10.5111L390.231 10.5133L390.594 11.4453ZM397.215 9.62891L397.048 8.64296L397.045 8.64345L397.215 9.62891ZM404.246 8.98438L404.262 9.98424L404.27 9.98411L404.278 9.98386L404.246 8.98438ZM447.371 8.86719H448.371V7.86719H447.371V8.86719ZM447.371 95V96H448.371V95H447.371ZM429.969 95H428.969V96H429.969V95ZM429.969 61.0156H430.969V60.0156H429.969V61.0156ZM406.414 61.25L406.345 60.2524L406.344 60.2525L406.414 61.25ZM400.555 62.832L401.01 63.7223L401.018 63.7181L401.026 63.7138L400.555 62.832ZM394.637 31.3672L393.694 31.0328L394.637 31.3672ZM394.754 40.4492L393.823 40.8157L393.83 40.833L393.838 40.85L394.754 40.4492ZM396.863 43.6133L396.156 44.3204L396.172 44.3365L396.189 44.3518L396.863 43.6133ZM399.852 45.5469L399.458 46.466L399.477 46.4744L399.497 46.4819L399.852 45.5469ZM403.25 46.4844L403.08 47.4699L403.086 47.4708L403.25 46.4844ZM406.648 46.8359L406.613 47.8353L406.614 47.8353L406.648 46.8359ZM429.969 46.8945V47.8945H430.969V46.8945H429.969ZM429.969 23.9844H430.969V22.9844H429.969V23.9844ZM408.289 24.043V25.043H408.317L408.345 25.0414L408.289 24.043ZM405.887 24.1602L405.932 25.1591L405.953 25.1582L405.973 25.1564L405.887 24.1602ZM400.965 24.9219L400.614 23.9855L400.604 23.9894L400.593 23.9934L400.965 24.9219ZM398.562 26.2109L399.089 27.0612L399.103 27.0523L399.117 27.043L398.562 26.2109ZM396.277 28.2617L395.503 27.6285L395.495 27.6393L395.486 27.6503L396.277 28.2617ZM395.632 66.5756C394.485 68.6996 393.783 71.6073 393.465 75.2249L395.457 75.4001C395.764 71.9083 396.429 69.3082 397.392 67.5259L395.632 66.5756ZM393.464 75.2407L392.878 83.3853L394.872 83.5288L395.458 75.3843L393.464 75.2407ZM392.878 83.374C392.723 85.2355 392.55 86.7937 392.359 88.0533L394.336 88.3529C394.536 87.0344 394.714 85.4286 394.872 83.5401L392.878 83.374ZM392.355 88.0791C392.202 89.3089 392.031 90.3288 391.845 91.1456L393.795 91.5888C394 90.6868 394.181 89.5973 394.34 88.3272L392.355 88.0791ZM391.848 91.1356C391.657 91.9368 391.469 92.6102 391.286 93.1603L393.183 93.7928C393.39 93.1711 393.593 92.4382 393.793 91.5988L391.848 91.1356ZM391.293 93.1402C391.095 93.6927 390.917 94.2073 390.758 94.6838L392.656 95.3162C392.809 94.8552 392.983 94.3542 393.176 93.8129L391.293 93.1402ZM391.707 94H373.016V96H391.707V94ZM373.897 95.4722C374.493 94.3595 374.961 93.3866 375.292 92.5589L373.435 91.8161C373.141 92.5509 372.71 93.453 372.134 94.5278L373.897 95.4722ZM375.275 92.5979C375.655 91.7542 375.949 90.8706 376.159 89.9482L374.208 89.5049C374.027 90.3013 373.775 91.0583 373.451 91.7771L375.275 92.5979ZM376.148 89.9897C376.4 89.0657 376.584 88.014 376.706 86.8412L374.716 86.6354C374.603 87.7282 374.436 88.6687 374.219 89.4634L376.148 89.9897ZM376.702 86.8749C376.86 85.7276 377.037 84.2318 377.233 82.3909L375.244 82.1794C375.049 84.0104 374.875 85.4834 374.72 86.6016L376.702 86.8749ZM377.233 82.3854L378.054 74.2408L376.064 74.0404L375.243 82.1849L377.233 82.3854ZM378.053 74.2494C378.324 71.7707 378.652 69.5324 379.037 67.5326L377.073 67.1549C376.676 69.2176 376.34 71.5105 376.065 74.0319L378.053 74.2494ZM379.034 67.547C379.447 65.5558 380.062 63.8131 380.869 62.3088L379.107 61.3631C378.196 63.0619 377.522 64.9911 377.076 67.1405L379.034 67.547ZM380.86 62.3252C381.686 60.8526 382.821 59.5695 384.28 58.4758L383.08 56.8758C381.413 58.1258 380.087 59.6161 379.116 61.3467L380.86 62.3252ZM384.28 58.4758C385.725 57.3915 387.684 56.4389 390.194 55.6404L389.587 53.7346C386.941 54.5768 384.759 55.6163 383.08 56.8758L384.28 58.4758ZM390.217 53.7421C389.124 53.3655 387.928 52.8722 386.625 52.2592L385.773 54.0689C387.127 54.7059 388.391 55.2283 389.565 55.6329L390.217 53.7421ZM386.635 52.2642C385.486 51.707 384.211 50.7375 382.814 49.3024L381.381 50.6976C382.875 52.2313 384.334 53.3711 385.763 54.0639L386.635 52.2642ZM382.805 49.2929C381.033 47.5213 379.62 45.352 378.571 42.7685L376.718 43.5205C377.857 46.3277 379.412 48.7287 381.391 50.7071L382.805 49.2929ZM378.573 42.7731C377.531 40.1683 377.004 37.3075 377.004 34.1797H375.004C375.004 37.5362 375.571 40.652 376.716 43.5159L378.573 42.7731ZM377.004 34.1797C377.004 32.2193 377.211 30.3625 377.622 28.6068L375.675 28.151C375.226 30.0672 375.004 32.0776 375.004 34.1797H377.004ZM377.623 28.6023C378.037 26.7944 378.62 25.1063 379.368 23.5354L377.562 22.6755C376.748 24.3859 376.119 26.2134 375.674 28.1555L377.623 28.6023ZM379.368 23.5354C380.12 21.9555 381.001 20.5127 382.011 19.2046L380.427 17.9829C379.327 19.4092 378.372 20.9742 377.562 22.6755L379.368 23.5354ZM382 19.2184C383.056 17.8986 384.182 16.7351 385.379 15.7252L384.09 14.1966C382.786 15.2962 381.569 16.5546 380.438 17.9691L382 19.2184ZM385.381 15.7237C387.097 14.2691 388.954 13.1558 390.956 12.3773L390.231 10.5133C388.014 11.3755 385.966 12.6059 384.088 14.1982L385.381 15.7237ZM390.95 12.3795C393.038 11.5823 395.183 10.994 397.385 10.6144L397.045 8.64345C394.716 9.04507 392.446 9.6677 390.237 10.5111L390.95 12.3795ZM397.382 10.6148C399.636 10.2328 401.929 10.0225 404.262 9.98424L404.23 7.98451C401.797 8.02438 399.403 8.24374 397.048 8.64297L397.382 10.6148ZM404.278 9.98386C406.69 9.90607 409.062 9.86719 411.395 9.86719V7.86719C409.04 7.86719 406.646 7.90643 404.214 7.98489L404.278 9.98386ZM411.395 9.86719H447.371V7.86719H411.395V9.86719ZM446.371 8.86719V95H448.371V8.86719H446.371ZM447.371 94H429.969V96H447.371V94ZM430.969 95V61.0156H428.969V95H430.969ZM429.969 60.0156H413.914V62.0156H429.969V60.0156ZM413.914 60.0156C411.161 60.0156 408.638 60.0943 406.345 60.2524L406.483 62.2476C408.722 62.0932 411.198 62.0156 413.914 62.0156V60.0156ZM406.344 60.2525C404.001 60.4169 401.906 60.9749 400.083 61.9502L401.026 63.7138C402.562 62.8923 404.374 62.3956 406.484 62.2475L406.344 60.2525ZM400.099 61.9418C398.205 62.9109 396.72 64.4837 395.625 66.5894L397.399 67.5121C398.335 65.7117 399.545 64.4719 401.01 63.7223L400.099 61.9418ZM393.694 31.0328C393.217 32.3784 392.992 33.9426 392.992 35.7031H394.992C394.992 34.1043 395.197 32.7779 395.579 31.7016L393.694 31.0328ZM392.992 35.7031C392.992 37.662 393.257 39.3767 393.823 40.8157L395.684 40.0827C395.236 38.9436 394.992 37.4942 394.992 35.7031H392.992ZM393.838 40.85C394.429 42.2003 395.198 43.3627 396.156 44.3204L397.57 42.9062C396.809 42.1451 396.173 41.1981 395.67 40.0484L393.838 40.85ZM396.189 44.3518C397.168 45.2459 398.259 45.9522 399.458 46.466L400.245 44.6277C399.257 44.2041 398.355 43.6213 397.538 42.8748L396.189 44.3518ZM399.497 46.4819C400.686 46.933 401.881 47.2631 403.08 47.4698L403.42 45.4989C402.353 45.315 401.282 45.0201 400.206 44.6119L399.497 46.4819ZM403.086 47.4708C404.296 47.6726 405.472 47.7946 406.613 47.8353L406.684 45.8366C405.637 45.7992 404.547 45.6868 403.414 45.498L403.086 47.4708ZM406.614 47.8353C407.755 47.8747 408.783 47.8945 409.695 47.8945V45.8945C408.811 45.8945 407.807 45.8753 406.683 45.8365L406.614 47.8353ZM409.695 47.8945H429.969V45.8945H409.695V47.8945ZM430.969 46.8945V23.9844H428.969V46.8945H430.969ZM429.969 22.9844H409.695V24.9844H429.969V22.9844ZM409.695 22.9844C409.429 22.9844 408.932 23.0057 408.234 23.0445L408.345 25.0414C409.052 25.0021 409.493 24.9844 409.695 24.9844V22.9844ZM408.289 23.043C407.55 23.043 406.72 23.0839 405.8 23.1639L405.973 25.1564C406.851 25.0801 407.622 25.043 408.289 25.043V23.043ZM405.841 23.1612C404.952 23.2016 404.045 23.2823 403.121 23.4029L403.379 25.3861C404.251 25.2724 405.102 25.1968 405.932 25.1591L405.841 23.1612ZM403.121 23.4029C402.171 23.5267 401.331 23.7167 400.614 23.9855L401.316 25.8582C401.849 25.6583 402.532 25.4967 403.379 25.3861L403.121 23.4029ZM400.593 23.9934C399.738 24.3355 398.876 24.8 398.008 25.3789L399.117 27.043C399.889 26.5282 400.629 26.1332 401.336 25.8504L400.593 23.9934ZM398.036 25.3607C397.109 25.9347 396.266 26.6963 395.503 27.6285L397.051 28.895C397.695 28.1084 398.375 27.5028 399.089 27.0612L398.036 25.3607ZM395.486 27.6503C394.747 28.6071 394.153 29.7398 393.694 31.0328L395.579 31.7016C395.98 30.5727 396.48 29.6351 397.069 28.8732L395.486 27.6503ZM534.09 80.1172H533.09V81.1172H534.09V80.1172ZM543.055 80.1172H544.055V79.1172H543.055V80.1172ZM543.055 113.457V114.457H544.055V113.457H543.055ZM527.469 113.457H526.469V114.457H527.469V113.457ZM527.469 95H528.469V94H527.469V95ZM464.246 95H463.246V96H464.246V95ZM464.246 8.86719V7.86719H463.246V8.86719H464.246ZM482.293 8.86719H483.293V7.86719H482.293V8.86719ZM482.293 80.1172H481.293V81.1172H482.293V80.1172ZM516.102 80.1172V81.1172H517.102V80.1172H516.102ZM516.102 8.86719V7.86719H515.102V8.86719H516.102ZM534.09 8.86719H535.09V7.86719H534.09V8.86719ZM534.09 81.1172H543.055V79.1172H534.09V81.1172ZM542.055 80.1172V113.457H544.055V80.1172H542.055ZM543.055 112.457H527.469V114.457H543.055V112.457ZM528.469 113.457V95H526.469V113.457H528.469ZM527.469 94H464.246V96H527.469V94ZM465.246 95V8.86719H463.246V95H465.246ZM464.246 9.86719H482.293V7.86719H464.246V9.86719ZM481.293 8.86719V80.1172H483.293V8.86719H481.293ZM482.293 81.1172H516.102V79.1172H482.293V81.1172ZM517.102 80.1172V8.86719H515.102V80.1172H517.102ZM516.102 9.86719H534.09V7.86719H516.102V9.86719ZM533.09 8.86719V80.1172H535.09V8.86719H533.09Z" fill="white"/>
</g>
<defs>
<filter id="filter0_bd_1_161" x="0.320312" y="0.699219" width="552.734" height="126.758" filterUnits="userSpaceOnUse" color-interpolation-filters="sRGB">
<feFlood flood-opacity="0" result="BackgroundImageFix"/>
<feGaussianBlur in="BackgroundImageFix" stdDeviation="1.5"/>
<feComposite in2="SourceAlpha" operator="in" result="effect1_backgroundBlur_1_161"/>
<feColorMatrix in="SourceAlpha" type="matrix" values="0 0 0 0 0 0 0 0 0 0 0 0 0 0 0 0 0 0 127 0" result="hardAlpha"/>
<feOffset dy="4"/>
<feGaussianBlur stdDeviation="5"/>
<feComposite in2="hardAlpha" operator="out"/>
<feColorMatrix type="matrix" values="0 0 0 0 0.375 0 0 0 0 0.30325 0 0 0 0 0.15625 0 0 0 0.3 0"/>
<feBlend mode="normal" in2="effect1_backgroundBlur_1_161" result="effect2_dropShadow_1_161"/>
<feBlend mode="normal" in="SourceGraphic" in2="effect2_dropShadow_1_161" result="shape"/>
</filter>
<linearGradient id="paint0_linear_1_161" x1="19.0448" y1="6" x2="415.257" y2="281.435" gradientUnits="userSpaceOnUse">
<stop stop-color="white" stop-opacity="0"/>
<stop offset="1" stop-color="white"/>
</linearGradient>
</defs>
</svg>
