<svg width="279" height="126" viewBox="0 0 279 126" fill="none" xmlns="http://www.w3.org/2000/svg">
<g filter="url(#filter0_bd_1_158)">
<path d="M28.9688 30.9727C27.0938 33.4727 26.1953 36.8125 26.2734 40.9922H10.6875C10.8438 36.7734 11.5664 32.7695 12.8555 28.9805C14.2227 25.6602 16.3711 22.5938 19.3008 19.7812C21.4883 17.7891 24.0859 16.2656 27.0938 15.2109C30.1016 14.1562 33.793 13.6289 38.168 13.6289C46.293 13.6289 52.8359 15.7383 57.7969 19.957C62.7969 24.1367 65.2969 29.7617 65.2969 36.832C65.2969 41.832 63.8125 46.0508 60.8438 49.4883C58.9688 51.6367 57.0156 53.1016 54.9844 53.8828C56.5078 53.8828 58.6953 55.1914 61.5469 57.8086C65.8047 61.7539 67.9336 67.1445 67.9336 73.9805C67.9336 81.168 65.4336 87.4961 60.4336 92.9648C55.4727 98.3945 48.1094 101.109 38.3438 101.109C26.3125 101.109 17.9531 97.1836 13.2656 89.332C10.8047 85.1523 9.4375 79.6836 9.16406 72.9258H25.5703C25.5703 76.3242 26.1172 79.1367 27.2109 81.3633C29.2422 85.4648 32.9336 87.5156 38.2852 87.5156C41.5664 87.5156 44.418 86.4023 46.8398 84.1758C49.3008 81.9102 50.5312 78.668 50.5312 74.4492C50.5312 68.8633 48.2656 65.1328 43.7344 63.2578C41.1562 62.2031 37.0938 61.6758 31.5469 61.6758V49.7227C36.9766 49.6445 40.7656 49.1172 42.9141 48.1406C46.625 46.5 48.4805 43.1797 48.4805 38.1797C48.4805 34.9375 47.5234 32.3008 45.6094 30.2695C43.7344 28.2383 41.0781 27.2227 37.6406 27.2227C33.6953 27.2227 30.8047 28.4727 28.9688 30.9727ZM105.844 101.109C95.0234 101.109 87.4258 97.3203 83.0508 89.7422C78.7148 82.1641 76.5469 71.3633 76.5469 57.3398C76.5469 43.3164 78.7148 32.4961 83.0508 24.8789C87.4258 17.2617 95.0234 13.4531 105.844 13.4531C116.664 13.4531 124.262 17.2617 128.637 24.8789C132.973 32.4961 135.141 43.3164 135.141 57.3398C135.141 71.3633 132.953 82.1641 128.578 89.7422C124.242 97.3203 116.664 101.109 105.844 101.109ZM115.629 79.7227C117.152 74.5664 117.914 67.1055 117.914 57.3398C117.914 47.1055 117.133 39.5273 115.57 34.6055C114.047 29.6836 110.805 27.2227 105.844 27.2227C100.883 27.2227 97.6016 29.6836 96 34.6055C94.3984 39.5273 93.5977 47.1055 93.5977 57.3398C93.5977 67.1055 94.3984 74.5859 96 79.7812C97.6016 84.9375 100.883 87.5156 105.844 87.5156C110.805 87.5156 114.066 84.918 115.629 79.7227ZM172.641 101.109C161.82 101.109 154.223 97.3203 149.848 89.7422C145.512 82.1641 143.344 71.3633 143.344 57.3398C143.344 43.3164 145.512 32.4961 149.848 24.8789C154.223 17.2617 161.82 13.4531 172.641 13.4531C183.461 13.4531 191.059 17.2617 195.434 24.8789C199.77 32.4961 201.938 43.3164 201.938 57.3398C201.938 71.3633 199.75 82.1641 195.375 89.7422C191.039 97.3203 183.461 101.109 172.641 101.109ZM182.426 79.7227C183.949 74.5664 184.711 67.1055 184.711 57.3398C184.711 47.1055 183.93 39.5273 182.367 34.6055C180.844 29.6836 177.602 27.2227 172.641 27.2227C167.68 27.2227 164.398 29.6836 162.797 34.6055C161.195 39.5273 160.395 47.1055 160.395 57.3398C160.395 67.1055 161.195 74.5859 162.797 79.7812C164.398 84.9375 167.68 87.5156 172.641 87.5156C177.602 87.5156 180.863 84.918 182.426 79.7227ZM232.172 61.793C224.711 59.6055 219.438 56.5586 216.352 52.6523C213.305 48.7461 211.781 44.0391 211.781 38.5312C211.781 34.8984 212.367 31.5977 213.539 28.6289C214.75 25.6602 216.43 23.1016 218.578 20.9531C221.352 18.1797 224.438 16.2656 227.836 15.2109C229.906 14.5469 232.934 14.0586 236.918 13.7461V5.95312H242.484V13.8633C248.852 14.3711 253.852 15.9336 257.484 18.5508C264.086 22.7305 267.504 29.5078 267.738 38.8828H252.328C252.016 35.4063 251.43 32.8672 250.57 31.2656C249.086 28.4922 246.391 26.9688 242.484 26.6953V49.0195C251.781 52.2227 258.031 55.0547 261.234 57.5156C266.508 61.6172 269.145 67.3984 269.145 74.8594C269.145 84.7031 265.531 91.8516 258.305 96.3047C253.891 99.0391 248.656 100.641 242.602 101.109V112.887H236.918V101.227C229.223 100.367 223.48 98.6875 219.691 96.1875C213.012 91.6953 209.73 84.0391 209.848 73.2188H225.668C226.215 78.1406 226.977 81.4414 227.953 83.1211C229.477 85.7383 232.465 87.4375 236.918 88.2188V63.1992L232.172 61.793ZM242.484 65.1328V88.043C245.57 87.6523 247.816 86.9492 249.223 85.9336C251.684 84.1367 252.914 81.0312 252.914 76.6172C252.914 73.2578 251.762 70.6016 249.457 68.6484C248.09 67.5156 245.766 66.3438 242.484 65.1328ZM236.918 47.3789V26.8125C233.52 26.8906 231 27.8086 229.359 29.5664C227.719 31.2852 226.898 33.6484 226.898 36.6562C226.898 39.9375 228.129 42.5352 230.59 44.4492C231.957 45.5039 234.066 46.4805 236.918 47.3789Z" fill="url(#paint0_linear_1_158)" shape-rendering="crispEdges"/>
<path d="M28.9688 30.9727L29.7688 31.5727L29.7748 31.5646L28.9688 30.9727ZM26.2734 40.9922V41.9922H27.2923L27.2733 40.9735L26.2734 40.9922ZM10.6875 40.9922L9.68819 40.9552L9.64978 41.9922H10.6875V40.9922ZM12.8555 28.9805L11.9308 28.5997L11.9189 28.6287L11.9088 28.6584L12.8555 28.9805ZM19.3008 19.7812L18.6275 19.0419L18.6177 19.0508L18.6082 19.0599L19.3008 19.7812ZM57.7969 19.957L57.149 20.7188L57.1555 20.7243L57.7969 19.957ZM60.8438 49.4883L61.5972 50.1458L61.6006 50.1419L60.8438 49.4883ZM54.9844 53.8828L54.6254 52.9495L54.9844 54.8828V53.8828ZM61.5469 57.8086L62.2266 57.0751L62.2231 57.0719L61.5469 57.8086ZM60.4336 92.9648L59.6956 92.2901L59.6953 92.2903L60.4336 92.9648ZM13.2656 89.332L12.4039 89.8394L12.407 89.8446L13.2656 89.332ZM9.16406 72.9258V71.9258H8.12278L8.16488 72.9662L9.16406 72.9258ZM25.5703 72.9258H26.5703V71.9258H25.5703V72.9258ZM27.2109 81.3633L26.3134 81.8042L26.3148 81.8071L27.2109 81.3633ZM46.8398 84.1758L47.5166 84.9119L47.5172 84.9115L46.8398 84.1758ZM43.7344 63.2578L44.1167 62.3338L44.113 62.3323L43.7344 63.2578ZM31.5469 61.6758H30.5469V62.6758H31.5469V61.6758ZM31.5469 49.7227L31.5325 48.7228L30.5469 48.7369V49.7227H31.5469ZM42.9141 48.1406L42.5097 47.226L42.5003 47.2303L42.9141 48.1406ZM45.6094 30.2695L44.8745 30.9478L44.8816 30.9553L45.6094 30.2695ZM28.1687 30.3727C26.1212 33.1028 25.1927 36.6834 25.2736 41.0109L27.2733 40.9735C27.1979 36.9416 28.0663 33.8425 29.7688 31.5727L28.1687 30.3727ZM26.2734 39.9922H10.6875V41.9922H26.2734V39.9922ZM11.6868 41.0292C11.8397 36.9022 12.5461 32.9947 13.8022 29.3025L11.9088 28.6584C10.5867 32.5443 9.84783 36.6447 9.68819 40.9552L11.6868 41.0292ZM13.7801 29.3612C15.0879 26.1852 17.1507 23.2315 19.9933 20.5026L18.6082 19.0599C15.5915 21.956 13.3574 25.1352 11.9308 28.5997L13.7801 29.3612ZM19.9741 20.5206C22.0549 18.6256 24.5336 17.1683 27.4246 16.1546L26.7629 14.2673C23.6382 15.3629 20.9217 16.9525 18.6275 19.0419L19.9741 20.5206ZM27.4246 16.1546C30.2947 15.1482 33.8667 14.6289 38.168 14.6289V12.6289C33.7193 12.6289 29.9084 13.1643 26.7629 14.2673L27.4246 16.1546ZM38.168 14.6289C46.1163 14.6289 52.4103 16.689 57.1491 20.7188L58.4447 19.1952C53.2615 14.7875 46.4697 12.6289 38.168 12.6289V14.6289ZM57.1555 20.7243C61.9072 24.6964 64.2969 30.0294 64.2969 36.832H66.2969C66.2969 29.4941 63.6866 23.5771 58.4382 19.1898L57.1555 20.7243ZM64.2969 36.832C64.2969 41.618 62.8826 45.5976 60.0869 48.8347L61.6006 50.1419C64.7424 46.504 66.2969 42.046 66.2969 36.832H64.2969ZM60.0903 48.8307C58.2903 50.8933 56.4649 52.242 54.6254 52.9495L55.3434 54.8162C57.5664 53.9611 59.6472 52.3802 61.5972 50.1458L60.0903 48.8307ZM54.9844 54.8828C55.4814 54.8828 56.2229 55.1055 57.2542 55.7224C58.268 56.3289 59.472 57.2616 60.8707 58.5453L62.2231 57.0719C60.7701 55.7384 59.4546 54.7082 58.2809 54.0061C57.1248 53.3145 56.0108 52.8828 54.9844 52.8828V54.8828ZM60.8672 58.5421C64.8843 62.2644 66.9336 67.3691 66.9336 73.9805H68.9336C68.9336 66.92 66.725 61.2434 62.2266 57.0751L60.8672 58.5421ZM66.9336 73.9805C66.9336 80.9098 64.5328 86.9994 59.6956 92.2901L61.1716 93.6396C66.3344 87.9928 68.9336 81.4261 68.9336 73.9805H66.9336ZM59.6953 92.2903C54.9805 97.4507 47.9251 100.109 38.3438 100.109V102.109C48.2936 102.109 55.9648 99.3384 61.1718 93.6394L59.6953 92.2903ZM38.3438 100.109C26.5382 100.109 18.5748 96.2741 14.1242 88.8194L12.407 89.8446C17.3315 98.0931 26.0868 102.109 38.3438 102.109V100.109ZM14.1274 88.8247C11.7764 84.8318 10.4325 79.54 10.1632 72.8854L8.16488 72.9662C8.44249 79.8272 9.83295 85.4729 12.4039 89.8394L14.1274 88.8247ZM9.16406 73.9258H25.5703V71.9258H9.16406V73.9258ZM24.5703 72.9258C24.5703 76.4236 25.1321 79.3994 26.3134 81.8042L28.1085 80.9224C27.1023 78.8741 26.5703 76.2248 26.5703 72.9258H24.5703ZM26.3148 81.8071C27.4125 84.0236 28.9793 85.7195 31.0173 86.8517C33.0461 87.9788 35.484 88.5156 38.2852 88.5156V86.5156C35.7348 86.5156 33.6511 86.027 31.9886 85.1034C30.3352 84.1848 29.0406 82.8045 28.1071 80.9195L26.3148 81.8071ZM38.2852 88.5156C41.8178 88.5156 44.9108 87.3077 47.5166 84.9119L46.163 83.4396C43.9252 85.497 41.315 86.5156 38.2852 86.5156V88.5156ZM47.5172 84.9115C50.2348 82.4095 51.5312 78.8696 51.5312 74.4492H49.5312C49.5312 78.4663 48.3667 81.4108 46.1625 83.4401L47.5172 84.9115ZM51.5312 74.4492C51.5312 71.5236 50.9378 69.0027 49.6867 66.9428C48.4301 64.8736 46.5535 63.3421 44.1167 62.3338L43.352 64.1818C45.4465 65.0485 46.9684 66.3197 47.9773 67.981C48.9919 69.6516 49.5312 71.7889 49.5312 74.4492H51.5312ZM44.113 62.3323C41.3465 61.2005 37.1206 60.6758 31.5469 60.6758V62.6758C37.0669 62.6758 40.966 63.2058 43.3557 64.1834L44.113 62.3323ZM32.5469 61.6758V49.7227H30.5469V61.6758H32.5469ZM31.5613 50.7226C36.995 50.6444 40.9721 50.1218 43.3279 49.051L42.5003 47.2303C40.5592 48.1126 36.9582 48.6447 31.5325 48.7228L31.5613 50.7226ZM43.3184 49.0552C45.3581 48.1535 46.921 46.7702 47.9618 44.9077C48.995 43.0588 49.4805 40.7984 49.4805 38.1797H47.4805C47.4805 40.5609 47.0382 42.4607 46.2159 43.9321C45.4013 45.3899 44.1809 46.4872 42.5097 47.226L43.3184 49.0552ZM49.4805 38.1797C49.4805 34.7267 48.4542 31.8303 46.3372 29.5837L44.8816 30.9553C46.5927 32.7712 47.4805 35.1483 47.4805 38.1797H49.4805ZM46.3442 29.5913C44.2355 27.3069 41.2844 26.2227 37.6406 26.2227V28.2227C40.8719 28.2227 43.2332 29.1697 44.8746 30.9478L46.3442 29.5913ZM37.6406 26.2227C33.4728 26.2227 30.2374 27.5557 28.1627 30.3807L29.7748 31.5646C31.372 29.3896 33.9178 28.2227 37.6406 28.2227V26.2227ZM83.0508 89.7422L82.1828 90.2388L82.1847 90.2422L83.0508 89.7422ZM83.0508 24.8789L82.1836 24.3808L82.1817 24.3842L83.0508 24.8789ZM128.637 24.8789L129.506 24.3842L129.504 24.3809L128.637 24.8789ZM128.578 89.7422L127.712 89.2422L127.71 89.2456L128.578 89.7422ZM115.629 79.7227L116.587 80.0107L116.588 80.006L115.629 79.7227ZM115.57 34.6055L114.615 34.9012L114.617 34.908L115.57 34.6055ZM96 79.7812L95.0444 80.0758L95.045 80.0779L96 79.7812ZM105.844 100.109C95.2819 100.109 88.0687 96.4339 83.9168 89.2422L82.1847 90.2422C86.7828 98.2067 94.765 102.109 105.844 102.109V100.109ZM83.9187 89.2456C79.7067 81.884 77.5469 71.2841 77.5469 57.3398H75.5469C75.5469 71.4425 77.723 82.4441 82.1828 90.2388L83.9187 89.2456ZM77.5469 57.3398C77.5469 43.3961 79.7065 32.7754 83.9198 25.3736L82.1817 24.3842C77.7232 32.2168 75.5469 43.2367 75.5469 57.3398H77.5469ZM83.9179 25.377C88.0709 18.1463 95.2843 14.4531 105.844 14.4531V12.4531C94.7626 12.4531 86.7806 16.3772 82.1836 24.3809L83.9179 25.377ZM105.844 14.4531C116.403 14.4531 123.617 18.1463 127.77 25.377L129.504 24.3809C124.907 16.3772 116.925 12.4531 105.844 12.4531V14.4531ZM127.768 25.3736C131.981 32.7754 134.141 43.3961 134.141 57.3398H136.141C136.141 43.2367 133.964 32.2168 129.506 24.3842L127.768 25.3736ZM134.141 57.3398C134.141 71.2831 131.962 81.8816 127.712 89.2422L129.444 90.2422C133.945 82.4466 136.141 71.4435 136.141 57.3398H134.141ZM127.71 89.2456C123.597 96.434 116.406 100.109 105.844 100.109V102.109C116.922 102.109 124.887 98.2066 129.446 90.2388L127.71 89.2456ZM116.588 80.006C118.152 74.7115 118.914 67.1368 118.914 57.3398H116.914C116.914 67.0741 116.152 74.4213 114.67 79.4393L116.588 80.006ZM118.914 57.3398C118.914 47.0829 118.134 39.3774 116.523 34.3029L114.617 34.908C116.131 39.6773 116.914 47.1281 116.914 57.3398H118.914ZM116.526 34.3098C115.719 31.7027 114.428 29.6585 112.601 28.2718C110.77 26.8825 108.494 26.2227 105.844 26.2227V28.2227C108.155 28.2227 109.98 28.7933 111.391 29.8649C112.807 30.9391 113.899 32.5864 114.615 34.9012L116.526 34.3098ZM105.844 26.2227C103.193 26.2227 100.91 26.8827 99.0621 28.2684C97.2182 29.6513 95.8968 31.6909 95.0491 34.296L96.9509 34.9149C97.7048 32.5982 98.8247 30.9464 100.262 29.8684C101.696 28.7931 103.533 28.2227 105.844 28.2227V26.2227ZM95.0491 34.296C93.3968 39.3736 92.5977 47.0821 92.5977 57.3398H94.5977C94.5977 47.1288 95.4 39.681 96.9509 34.9149L95.0491 34.296ZM92.5977 57.3398C92.5977 67.1393 93.3988 74.7377 95.0444 80.0758L96.9556 79.4867C95.3981 74.4341 94.5977 67.0716 94.5977 57.3398H92.5977ZM95.045 80.0779C95.8884 82.7931 97.2033 84.9218 99.0443 86.3683C100.893 87.8207 103.183 88.5156 105.844 88.5156V86.5156C103.543 86.5156 101.713 85.9215 100.28 84.7957C98.8397 83.6641 97.7132 81.9257 96.955 79.4846L95.045 80.0779ZM105.844 88.5156C108.506 88.5156 110.794 87.8149 112.634 86.3496C114.466 84.8907 115.764 82.745 116.587 80.0107L114.671 79.4346C113.931 81.8956 112.818 83.6464 111.388 84.7851C109.966 85.9175 108.143 86.5156 105.844 86.5156V88.5156ZM149.848 89.7422L148.98 90.2388L148.982 90.2422L149.848 89.7422ZM149.848 24.8789L148.981 24.3808L148.979 24.3842L149.848 24.8789ZM195.434 24.8789L196.303 24.3842L196.301 24.3809L195.434 24.8789ZM195.375 89.7422L194.509 89.2422L194.507 89.2456L195.375 89.7422ZM182.426 79.7227L183.383 80.0107L183.385 80.006L182.426 79.7227ZM182.367 34.6055L181.412 34.9012L181.414 34.908L182.367 34.6055ZM162.797 79.7812L161.841 80.0758L161.842 80.0779L162.797 79.7812ZM172.641 100.109C162.079 100.109 154.866 96.4339 150.714 89.2422L148.982 90.2422C153.58 98.2067 161.562 102.109 172.641 102.109V100.109ZM150.716 89.2456C146.504 81.884 144.344 71.2841 144.344 57.3398H142.344C142.344 71.4425 144.52 82.4441 148.98 90.2388L150.716 89.2456ZM144.344 57.3398C144.344 43.3961 146.503 32.7754 150.717 25.3736L148.979 24.3842C144.52 32.2168 142.344 43.2367 142.344 57.3398H144.344ZM150.715 25.377C154.868 18.1463 162.081 14.4531 172.641 14.4531V12.4531C161.559 12.4531 153.578 16.3772 148.981 24.3809L150.715 25.377ZM172.641 14.4531C183.2 14.4531 190.413 18.1463 194.566 25.377L196.301 24.3809C191.704 16.3772 183.722 12.4531 172.641 12.4531V14.4531ZM194.565 25.3736C198.778 32.7754 200.938 43.3961 200.938 57.3398H202.938C202.938 43.2367 200.761 32.2168 196.303 24.3842L194.565 25.3736ZM200.938 57.3398C200.938 71.2831 198.758 81.8816 194.509 89.2422L196.241 90.2422C200.742 82.4466 202.938 71.4435 202.938 57.3398H200.938ZM194.507 89.2456C190.394 96.434 183.203 100.109 172.641 100.109V102.109C183.719 102.109 191.684 98.2066 196.243 90.2388L194.507 89.2456ZM183.385 80.006C184.949 74.7115 185.711 67.1368 185.711 57.3398H183.711C183.711 67.0741 182.949 74.4213 181.467 79.4393L183.385 80.006ZM185.711 57.3398C185.711 47.0829 184.931 39.3774 183.32 34.3029L181.414 34.908C182.928 39.6773 183.711 47.1281 183.711 57.3398H185.711ZM183.322 34.3098C182.516 31.7027 181.224 29.6585 179.398 28.2718C177.567 26.8825 175.29 26.2227 172.641 26.2227V28.2227C174.952 28.2227 176.777 28.7933 178.188 29.8649C179.604 30.9391 180.695 32.5864 181.412 34.9012L183.322 34.3098ZM172.641 26.2227C169.99 26.2227 167.707 26.8827 165.859 28.2684C164.015 29.6513 162.694 31.6909 161.846 34.296L163.748 34.9149C164.502 32.5982 165.622 30.9464 167.059 29.8684C168.493 28.7931 170.33 28.2227 172.641 28.2227V26.2227ZM161.846 34.296C160.194 39.3736 159.395 47.0821 159.395 57.3398H161.395C161.395 47.1288 162.197 39.681 163.748 34.9149L161.846 34.296ZM159.395 57.3398C159.395 67.1393 160.196 74.7377 161.841 80.0758L163.752 79.4867C162.195 74.4341 161.395 67.0716 161.395 57.3398H159.395ZM161.842 80.0779C162.685 82.7931 164 84.9218 165.841 86.3683C167.69 87.8207 169.98 88.5156 172.641 88.5156V86.5156C170.34 86.5156 168.51 85.9215 167.077 84.7957C165.637 83.6641 164.51 81.9257 163.752 79.4846L161.842 80.0779ZM172.641 88.5156C175.303 88.5156 177.591 87.8149 179.431 86.3496C181.262 84.8907 182.561 82.745 183.383 80.0107L181.468 79.4346C180.728 81.8956 179.614 83.6464 178.185 84.7851C176.763 85.9175 174.939 86.5156 172.641 86.5156V88.5156ZM232.172 61.793L232.456 60.8342L232.453 60.8334L232.172 61.793ZM216.352 52.6523L215.563 53.2674L215.567 53.2722L216.352 52.6523ZM213.539 28.6289L212.613 28.2512L212.609 28.2617L213.539 28.6289ZM227.836 15.2109L228.132 16.166L228.141 16.1632L227.836 15.2109ZM236.918 13.7461L236.996 14.743L237.918 14.6707V13.7461H236.918ZM236.918 5.95312V4.95312H235.918V5.95312H236.918ZM242.484 5.95312H243.484V4.95312H242.484V5.95312ZM242.484 13.8633H241.484V14.7867L242.405 14.8601L242.484 13.8633ZM257.484 18.5508L256.9 19.3622L256.924 19.3797L256.949 19.3957L257.484 18.5508ZM267.738 38.8828V39.8828H268.764L268.738 38.8578L267.738 38.8828ZM252.328 38.8828L251.332 38.9723L251.414 39.8828H252.328V38.8828ZM250.57 31.2656L249.689 31.7375L249.689 31.7384L250.57 31.2656ZM242.484 26.6953L242.554 25.6978L241.484 25.6229V26.6953H242.484ZM242.484 49.0195H241.484V49.7327L242.159 49.965L242.484 49.0195ZM261.234 57.5156L261.848 56.7263L261.844 56.7226L261.234 57.5156ZM258.305 96.3047L257.78 95.4533L257.778 95.4546L258.305 96.3047ZM242.602 101.109L242.524 100.112L241.602 100.184V101.109H242.602ZM242.602 112.887V113.887H243.602V112.887H242.602ZM236.918 112.887H235.918V113.887H236.918V112.887ZM236.918 101.227H237.918V100.332L237.029 100.233L236.918 101.227ZM219.691 96.1875L219.133 97.0173L219.141 97.0222L219.691 96.1875ZM209.848 73.2188V72.2188H208.858L208.848 73.2079L209.848 73.2188ZM225.668 73.2188L226.662 73.1083L226.563 72.2188H225.668V73.2188ZM227.953 83.1211L227.089 83.6237L227.089 83.6242L227.953 83.1211ZM236.918 88.2188L236.745 89.2037L237.918 89.4095V88.2188H236.918ZM236.918 63.1992H237.918V62.4525L237.202 62.2404L236.918 63.1992ZM242.484 65.1328L242.831 64.1947L241.484 63.6978V65.1328H242.484ZM242.484 88.043H241.484V89.1775L242.61 89.0351L242.484 88.043ZM249.223 85.9336L249.808 86.7443L249.812 86.7412L249.223 85.9336ZM249.457 68.6484L250.104 67.8855L250.095 67.8784L249.457 68.6484ZM236.918 47.3789L236.617 48.3327L237.918 48.7424V47.3789H236.918ZM236.918 26.8125H237.918V25.7892L236.895 25.8128L236.918 26.8125ZM229.359 29.5664L230.083 30.2569L230.09 30.2487L229.359 29.5664ZM230.59 44.4492L229.976 45.2386L229.979 45.241L230.59 44.4492ZM232.453 60.8334C225.087 58.6737 220.04 55.7079 217.136 52.0324L215.567 53.2722C218.835 57.4093 224.335 60.5372 231.891 62.7526L232.453 60.8334ZM217.14 52.0373C214.246 48.3265 212.781 43.8426 212.781 38.5312H210.781C210.781 44.2356 212.364 49.1657 215.563 53.2674L217.14 52.0373ZM212.781 38.5312C212.781 35.0069 213.349 31.8329 214.469 28.9961L212.609 28.2617C211.385 31.3624 210.781 34.79 210.781 38.5312H212.781ZM214.465 29.0066C215.628 26.1542 217.236 23.7094 219.285 21.6602L217.871 20.246C215.623 22.4937 213.872 25.1661 212.613 28.2512L214.465 29.0066ZM219.285 21.6602C221.956 18.9896 224.904 17.1678 228.132 16.166L227.54 14.2559C223.971 15.3634 220.747 17.3698 217.871 20.246L219.285 21.6602ZM228.141 16.1632C230.1 15.5348 233.036 15.0536 236.996 14.743L236.84 12.7492C232.831 13.0636 229.712 13.559 227.531 14.2587L228.141 16.1632ZM237.918 13.7461V5.95312H235.918V13.7461H237.918ZM236.918 6.95312H242.484V4.95312H236.918V6.95312ZM241.484 5.95312V13.8633H243.484V5.95312H241.484ZM242.405 14.8601C248.664 15.3593 253.466 16.888 256.9 19.3622L258.069 17.7394C254.238 14.9792 249.04 13.3829 242.564 12.8664L242.405 14.8601ZM256.949 19.3957C263.21 23.3593 266.511 29.7898 266.739 38.9078L268.738 38.8578C268.497 29.2258 264.962 22.1016 258.019 17.7059L256.949 19.3957ZM267.738 37.8828H252.328V39.8828H267.738V37.8828ZM253.324 38.7933C253.009 35.2833 252.409 32.578 251.451 30.7928L249.689 31.7384C250.45 33.1564 251.023 35.5292 251.332 38.9723L253.324 38.7933ZM251.452 30.7937C249.764 27.6408 246.707 25.9885 242.554 25.6978L242.415 27.6929C246.074 27.949 248.407 29.3436 249.689 31.7375L251.452 30.7937ZM241.484 26.6953V49.0195H243.484V26.6953H241.484ZM242.159 49.965C251.458 53.1691 257.565 55.9577 260.625 58.3086L261.844 56.7226C258.497 54.1516 252.104 51.2762 242.81 48.0741L242.159 49.965ZM260.62 58.305C265.62 62.1932 268.145 67.6659 268.145 74.8594H270.145C270.145 67.131 267.396 61.0412 261.848 56.7263L260.62 58.305ZM268.145 74.8594C268.145 84.4214 264.66 91.2141 257.78 95.4533L258.829 97.156C266.403 92.489 270.145 84.9849 270.145 74.8594H268.145ZM257.778 95.4546C253.521 98.0916 248.447 99.6539 242.524 100.112L242.679 102.106C248.866 101.627 254.26 99.9866 258.831 97.1548L257.778 95.4546ZM241.602 101.109V112.887H243.602V101.109H241.602ZM242.602 111.887H236.918V113.887H242.602V111.887ZM237.918 112.887V101.227H235.918V112.887H237.918ZM237.029 100.233C229.394 99.3801 223.837 97.7246 220.242 95.3528L219.141 97.0222C223.124 99.6504 229.051 101.354 236.807 102.22L237.029 100.233ZM220.249 95.3577C213.941 91.1153 210.733 83.8416 210.848 73.2296L208.848 73.2079C208.728 84.2365 212.082 92.2753 219.133 97.0173L220.249 95.3577ZM209.848 74.2188H225.668V72.2188H209.848V74.2188ZM224.674 73.3292C224.95 75.8128 225.282 77.9096 225.675 79.6106C226.064 81.2975 226.526 82.6561 227.089 83.6237L228.818 82.6185C228.404 81.9064 227.996 80.7747 227.624 79.1609C227.255 77.5611 226.933 75.5466 226.662 73.1083L224.674 73.3292ZM227.089 83.6242C228.822 86.6008 232.147 88.3971 236.745 89.2037L237.091 87.2338C232.782 86.4779 230.132 84.8758 228.817 82.618L227.089 83.6242ZM237.918 88.2188V63.1992H235.918V88.2188H237.918ZM237.202 62.2404L232.456 60.8342L231.888 62.7518L236.634 64.158L237.202 62.2404ZM241.484 65.1328V88.043H243.484V65.1328H241.484ZM242.61 89.0351C245.749 88.6377 248.197 87.9079 249.808 86.7443L248.637 85.1229C247.436 85.9906 245.391 86.667 242.359 87.0509L242.61 89.0351ZM249.812 86.7412C252.633 84.6818 253.914 81.1993 253.914 76.6172H251.914C251.914 80.8632 250.734 83.5916 248.633 85.126L249.812 86.7412ZM253.914 76.6172C253.914 73.001 252.659 70.0514 250.104 67.8855L248.811 69.4113C250.864 71.1517 251.914 73.5146 251.914 76.6172H253.914ZM250.095 67.8784C248.592 66.6332 246.136 65.4144 242.831 64.1947L242.138 66.071C245.396 67.2731 247.587 68.398 248.819 69.4185L250.095 67.8784ZM237.918 47.3789V26.8125H235.918V47.3789H237.918ZM236.895 25.8128C233.34 25.8945 230.518 26.8599 228.628 28.8841L230.09 30.2487C231.482 28.7573 233.699 27.8868 236.941 27.8122L236.895 25.8128ZM228.636 28.8759C226.774 30.8266 225.898 33.4627 225.898 36.6562H227.898C227.898 33.8342 228.664 31.7437 230.083 30.2569L228.636 28.8759ZM225.898 36.6562C225.898 40.2273 227.257 43.1238 229.976 45.2386L231.204 43.6599C229.001 41.9465 227.898 39.6477 227.898 36.6562H225.898ZM229.979 45.241C231.483 46.4016 233.723 47.4209 236.617 48.3327L237.218 46.4251C234.409 45.5401 232.431 44.6062 231.201 43.6574L229.979 45.241Z" fill="white"/>
</g>
<defs>
<filter id="filter0_bd_1_158" x="0.164062" y="0.953125" width="277.98" height="124.934" filterUnits="userSpaceOnUse" color-interpolation-filters="sRGB">
<feFlood flood-opacity="0" result="BackgroundImageFix"/>
<feGaussianBlur in="BackgroundImageFix" stdDeviation="1.5"/>
<feComposite in2="SourceAlpha" operator="in" result="effect1_backgroundBlur_1_158"/>
<feColorMatrix in="SourceAlpha" type="matrix" values="0 0 0 0 0 0 0 0 0 0 0 0 0 0 0 0 0 0 127 0" result="hardAlpha"/>
<feOffset dy="4"/>
<feGaussianBlur stdDeviation="4.5"/>
<feComposite in2="hardAlpha" operator="out"/>
<feColorMatrix type="matrix" values="0 0 0 0 0.375 0 0 0 0 0.30325 0 0 0 0 0.15625 0 0 0 0.3 0"/>
<feBlend mode="normal" in2="effect1_backgroundBlur_1_158" result="effect2_dropShadow_1_158"/>
<feBlend mode="normal" in="SourceGraphic" in2="effect2_dropShadow_1_158" result="shape"/>
</filter>
<linearGradient id="paint0_linear_1_158" x1="14.4126" y1="10" x2="273.918" y2="99.0377" gradientUnits="userSpaceOnUse">
<stop stop-color="white"/>
<stop offset="1" stop-color="white" stop-opacity="0"/>
</linearGradient>
</defs>
</svg>
